<?xml version="1.0" standalone="no"?>
<!DOCTYPE svg PUBLIC "-//W3C//DTD SVG 20010904//EN"
 "http://www.w3.org/TR/2001/REC-SVG-20010904/DTD/svg10.dtd">
<svg version="1.0" xmlns="http://www.w3.org/2000/svg"
 width="512.000000pt" height="512.000000pt" viewBox="0 0 512.000000 512.000000"
 preserveAspectRatio="xMidYMid meet">
<metadata>
Created by potrace 1.14, written by Peter Selinger 2001-2017
</metadata>
<g transform="translate(0.000000,512.000000) scale(0.100000,-0.100000)"
fill="#000000" stroke="none">
<path d="M2470 4977 c-19 -13 -118 -75 -220 -137 -102 -62 -189 -116 -193
-120 -5 -4 9 -18 30 -31 21 -12 40 -26 43 -29 3 -4 14 -10 25 -14 16 -6 17 -9
5 -17 -12 -9 -11 -10 4 -5 17 6 113 -44 127 -66 3 -5 9 -9 13 -8 14 3 77 -40
72 -49 -4 -5 3 -7 14 -4 15 4 20 0 20 -13 0 -16 2 -17 10 -4 6 10 10 11 10 3
0 -7 7 -13 15 -13 9 0 18 -6 21 -14 3 -8 12 -12 20 -9 8 3 14 0 14 -7 0 -7 6
-10 14 -7 8 3 17 1 20 -6 2 -7 5 -4 5 6 1 10 6 15 11 12 6 -3 10 -2 10 3 0 6
24 24 53 40 28 17 72 43 96 58 24 15 41 21 37 13 -5 -10 -3 -9 6 1 18 21 63
50 125 81 29 15 50 29 47 31 -2 3 9 11 26 18 17 7 29 17 27 23 -2 6 -50 40
-108 75 -248 152 -349 212 -357 212 -4 0 -23 -11 -42 -23z"/>
<path d="M2825 4600 c-3 -6 1 -7 9 -4 18 7 21 14 7 14 -6 0 -13 -4 -16 -10z"/>
<path d="M2220 4586 c0 -2 8 -10 18 -17 15 -13 16 -12 3 4 -13 16 -21 21 -21
13z"/>
<path d="M1665 4501 c-44 -26 -138 -81 -210 -123 -71 -41 -287 -167 -480 -278
-192 -112 -374 -217 -402 -234 -29 -17 -53 -33 -53 -37 0 -3 12 -11 26 -17 15
-7 22 -17 18 -24 -4 -7 -3 -8 5 -4 13 8 113 -53 106 -64 -3 -4 1 -7 8 -7 20 1
77 -24 77 -34 0 -5 7 -9 15 -9 8 0 15 -3 15 -8 0 -4 14 -13 30 -21 27 -11 29
-15 18 -30 -12 -14 -11 -15 5 -2 14 11 20 11 32 1 8 -7 30 -21 48 -30 17 -10
31 -23 30 -28 -1 -6 7 -7 19 -4 14 3 19 1 14 -6 -4 -7 -1 -12 8 -12 8 0 22 -8
32 -17 10 -10 20 -17 23 -17 13 3 31 -9 26 -16 -3 -5 0 -12 6 -16 8 -4 9 -3 5
4 -11 17 9 15 24 -3 7 -8 17 -15 22 -15 5 0 28 -13 51 -28 50 -34 77 -45 77
-31 0 6 4 8 9 5 5 -4 11 -3 13 2 6 14 68 53 68 43 0 -6 4 -11 10 -11 5 0 7 7
3 15 -3 9 -1 15 3 13 5 -2 16 3 24 10 34 29 221 132 230 127 6 -3 10 1 10 10
0 9 4 14 9 11 5 -4 11 -3 13 2 1 4 15 16 29 27 l25 20 -143 80 c-79 44 -143
83 -143 88 0 5 8 6 17 3 10 -4 14 -4 10 0 -4 4 10 17 30 29 25 14 40 18 45 11
5 -7 8 -4 8 6 0 10 19 26 48 40 26 13 49 25 52 28 6 6 36 23 91 52 37 19 41
19 58 4 10 -9 23 -16 29 -16 7 0 12 -4 12 -9 0 -5 9 -11 20 -14 11 -3 20 -9
19 -14 -3 -19 2 -25 15 -14 10 9 17 7 27 -6 12 -14 12 -16 0 -8 -10 5 -12 4
-7 -4 4 -6 11 -9 16 -6 14 9 51 -15 44 -27 -4 -6 -3 -8 4 -4 10 6 84 -31 90
-46 2 -5 8 -6 13 -2 5 3 9 0 9 -5 0 -6 7 -11 15 -11 9 0 18 -7 21 -15 4 -8 10
-13 14 -10 5 3 14 -1 22 -8 7 -7 26 -18 41 -25 17 -7 25 -17 21 -24 -4 -7 -3
-8 4 -4 15 9 54 -12 47 -24 -3 -6 1 -7 9 -4 9 3 16 1 16 -5 0 -6 4 -10 9 -8
10 2 124 -64 129 -75 2 -5 8 -8 14 -8 5 0 22 -8 36 -18 29 -20 75 -35 67 -22
-4 7 24 24 34 20 2 -1 7 3 10 8 9 14 91 63 91 55 0 -5 4 -3 8 2 15 22 62 45
79 39 13 -4 14 -3 5 3 -9 7 -5 13 15 23 16 8 36 20 45 28 9 8 22 11 29 6 8 -5
10 -3 4 6 -6 10 -4 12 9 7 10 -4 15 -3 11 3 -3 5 3 14 14 19 26 14 34 14 25
-1 -4 -7 -3 -8 5 -4 6 4 9 12 5 17 -3 5 8 14 25 20 17 6 31 14 31 18 0 4 15
15 33 24 17 10 47 26 65 37 18 11 37 18 42 15 5 -3 12 0 16 6 4 8 3 9 -4 5 -7
-4 -12 -5 -12 -2 0 2 37 25 82 51 73 43 83 46 93 31 7 -9 17 -16 24 -16 13 0
62 -30 72 -43 3 -5 10 -9 15 -9 20 -1 34 -11 28 -19 -3 -5 -2 -9 3 -8 21 4 41
-3 59 -19 19 -18 25 -22 57 -30 9 -2 17 -8 17 -12 0 -4 10 -10 22 -13 19 -5
15 -10 -31 -42 -29 -19 -55 -35 -57 -35 -2 0 -38 -22 -79 -50 l-76 -49 40 -29
c22 -16 37 -33 33 -37 -4 -5 -1 -5 5 -1 16 9 75 -33 66 -47 -3 -6 -1 -7 5 -3
11 7 44 -8 70 -31 7 -7 18 -13 23 -13 6 0 7 -4 4 -10 -4 -6 1 -7 11 -3 13 5
16 3 11 -10 -4 -11 -2 -14 8 -11 16 7 77 -35 69 -47 -3 -5 1 -6 8 -4 8 3 22
-2 33 -11 11 -8 14 -13 8 -9 -9 4 -11 1 -6 -10 3 -9 9 -12 12 -7 3 5 18 12 33
15 15 4 33 14 42 22 8 8 22 15 30 15 9 0 16 4 16 8 0 5 17 17 38 27 55 29 55
29 47 14 -5 -8 -4 -11 1 -6 5 5 9 13 9 18 0 6 18 20 40 32 22 12 42 25 45 28
3 3 20 11 38 18 17 8 32 18 32 23 0 6 8 7 17 4 10 -4 14 -4 10 0 -4 4 12 18
35 32 24 13 58 33 76 43 20 12 31 14 27 7 -4 -7 2 -3 12 8 29 34 159 105 180
98 13 -4 14 -3 5 4 -10 7 -7 13 14 26 l26 18 -78 45 c-44 25 -99 57 -124 71
-25 13 -144 82 -265 152 -288 166 -570 328 -620 355 -22 12 -64 36 -93 54 -29
17 -59 31 -67 31 -12 0 -131 -66 -290 -161 -16 -10 -41 -24 -55 -32 -37 -20
-290 -167 -325 -188 -16 -10 -44 -25 -61 -34 l-31 -16 -377 221 c-208 121
-380 220 -384 219 -4 0 -43 -22 -87 -48z"/>
<path d="M1756 3993 c-6 -14 -5 -15 5 -6 7 7 10 15 7 18 -3 3 -9 -2 -12 -12z"/>
<path d="M4470 3664 c-120 -69 -168 -96 -235 -134 -22 -12 -44 -26 -50 -30 -5
-4 -35 -21 -65 -37 -30 -17 -72 -40 -92 -52 -52 -29 -69 -39 -343 -196 -132
-76 -258 -148 -280 -160 -46 -25 -88 -49 -162 -93 -29 -17 -53 -28 -53 -24 0
4 -4 2 -8 -4 -9 -14 -585 -344 -600 -344 -6 0 -14 -9 -17 -21 -5 -15 -10 -618
-5 -647 0 -1 15 5 33 15 17 9 35 16 40 15 4 -1 7 2 7 6 0 15 58 42 77 36 12
-4 14 -3 6 3 -8 6 9 22 56 50 38 22 78 44 90 48 11 3 21 11 21 16 0 6 5 7 10
4 6 -3 10 -1 10 5 0 7 7 9 16 6 8 -3 13 -2 10 3 -6 8 9 18 28 19 5 0 12 6 17
13 6 10 11 10 26 -2 16 -12 17 -12 6 1 -10 13 -8 18 9 29 53 33 87 49 92 44 3
-3 8 2 12 11 4 11 14 15 28 11 11 -2 15 -2 8 1 -6 3 -9 10 -6 15 3 6 11 5 20
-2 12 -10 15 -10 12 2 -2 8 4 13 14 13 10 -1 16 3 15 8 -1 5 12 18 30 27 17
10 43 25 56 34 19 12 27 13 30 4 3 -7 6 -5 6 6 1 9 4 17 9 17 4 0 7 -384 6
-854 0 -646 3 -853 12 -852 6 1 19 10 29 19 10 10 24 16 31 13 8 -3 13 -1 11
5 -3 14 82 61 95 53 7 -4 8 -2 4 4 -4 6 9 18 31 28 21 10 40 21 43 24 13 16
100 61 109 56 5 -4 13 -1 17 5 5 8 2 10 -7 5 -8 -4 -3 2 11 13 14 11 33 23 42
26 11 4 16 15 13 33 -1 15 2 33 7 40 6 7 6 12 1 12 -11 0 -11 119 0 137 4 6 3
14 -2 17 -10 6 -8 66 3 84 3 6 3 13 -2 16 -10 6 -9 106 1 123 4 6 3 14 -2 17
-10 6 -8 66 3 84 3 6 3 13 -2 16 -10 6 -9 106 1 122 3 6 3 14 -1 18 -11 11 -8
90 3 98 7 5 6 8 -1 8 -11 0 -13 98 -1 116 3 6 3 14 -1 18 -11 12 -9 96 3 96 7
0 7 3 0 8 -13 9 -15 82 -3 82 5 0 6 5 2 12 -11 18 -12 101 -1 116 6 7 6 12 0
12 -10 0 -11 119 0 136 3 6 3 14 -1 18 -11 11 -8 90 3 98 7 5 6 8 -1 8 -12 0
-12 119 0 139 6 9 5 12 -2 8 -6 -5 -8 0 -5 13 5 17 53 58 53 45 0 -4 12 3 26
14 15 12 33 21 40 21 8 0 14 5 14 10 0 6 5 10 10 10 6 0 27 11 48 24 20 14 43
26 51 28 8 2 23 11 33 21 10 9 25 17 33 17 8 0 15 5 15 11 0 5 4 8 9 4 5 -3
12 -1 15 4 11 18 117 72 128 65 6 -4 8 -3 5 3 -3 5 7 17 24 27 16 9 29 14 29
9 0 -4 5 0 11 11 9 15 13 16 20 5 7 -12 9 -11 9 1 1 19 73 57 78 41 2 -6 8
-11 14 -11 7 0 6 5 -1 14 -10 12 1 21 59 52 l70 38 0 318 c0 175 -1 318 -2
318 -2 0 -55 -30 -118 -66z"/>
<path d="M601 3683 c-1 -6 13 -37 30 -67 16 -31 26 -56 22 -56 -4 0 -3 -4 3
-8 19 -12 64 -99 56 -107 -4 -5 -2 -5 4 -2 14 8 27 -20 17 -36 -3 -7 -3 -9 2
-5 4 4 14 0 21 -10 17 -21 18 -36 2 -26 -7 4 -8 3 -4 -5 4 -6 11 -9 16 -6 5 3
12 -5 16 -17 3 -12 13 -28 20 -36 8 -7 12 -18 9 -23 -4 -5 -1 -9 5 -9 7 0 9
-7 6 -16 -4 -10 -2 -13 6 -8 8 5 9 2 5 -10 -4 -10 -3 -15 3 -11 5 3 14 -3 19
-14 8 -14 8 -21 -2 -24 -7 -3 -5 -6 5 -6 19 -1 41 -34 31 -45 -3 -3 -1 -6 6
-6 8 0 11 -8 8 -19 -3 -15 -1 -18 11 -14 12 5 14 1 10 -15 -3 -12 -2 -20 3
-19 8 2 34 -37 67 -103 9 -19 20 -36 25 -38 4 -2 7 -8 7 -12 0 -5 13 -32 30
-60 16 -27 26 -50 22 -51 -4 0 3 -4 16 -10 13 -5 21 -13 17 -19 -3 -6 1 -7 9
-4 9 3 16 1 16 -5 0 -6 9 -11 20 -11 11 0 20 -4 20 -10 0 -5 7 -10 15 -10 8 0
15 -5 15 -11 0 -5 5 -7 10 -4 6 3 10 1 10 -4 0 -6 3 -10 8 -9 12 4 141 -75
136 -84 -3 -4 2 -5 10 -2 8 3 24 -4 35 -15 12 -12 21 -19 21 -16 0 10 116 -59
133 -79 10 -11 16 -15 12 -9 -4 9 -1 11 9 7 9 -3 13 -11 9 -17 -3 -5 -1 -7 5
-3 5 3 50 -17 99 -45 48 -28 104 -61 123 -71 19 -11 38 -25 41 -30 3 -5 9 -9
13 -9 13 2 66 -30 66 -40 0 -6 5 -7 10 -4 17 11 44 -26 45 -62 1 -18 -3 -33
-9 -33 -7 0 -8 -3 -1 -8 12 -8 15 -232 3 -232 -7 0 -41 18 -178 95 -42 24
-105 59 -142 79 l-66 36 -104 -46 c-128 -57 -138 -61 -273 -119 -60 -25 -127
-54 -148 -63 -43 -19 -43 -29 1 -52 17 -10 29 -20 25 -24 -3 -3 1 -6 10 -6 24
0 78 -35 69 -45 -4 -5 -2 -5 5 -1 14 8 76 -28 66 -38 -4 -4 0 -4 10 0 9 3 17
2 17 -3 0 -5 16 -15 35 -22 19 -7 33 -17 30 -22 -4 -5 3 -9 14 -9 12 0 21 -5
21 -11 0 -5 4 -8 9 -4 6 3 13 -1 18 -8 4 -7 23 -19 41 -26 17 -8 32 -18 32
-23 0 -5 5 -6 12 -2 7 5 9 2 5 -9 -4 -11 -2 -14 8 -11 13 5 63 -21 77 -41 4
-5 8 -6 8 -1 0 6 7 1 16 -10 8 -10 13 -13 9 -6 -3 6 11 2 32 -10 21 -12 40
-26 41 -30 2 -4 10 -8 17 -8 8 0 20 -6 27 -12 17 -16 88 -58 111 -65 9 -3 17
-9 17 -14 0 -5 7 -9 15 -9 8 0 15 -4 15 -9 0 -5 11 -12 25 -15 14 -4 23 -11
20 -16 -3 -5 0 -12 6 -16 8 -4 9 -3 5 4 -10 16 5 15 26 -2 10 -7 15 -16 11
-19 -3 -4 -2 -7 4 -7 8 0 11 -105 3 -135 -1 -5 -1 -12 0 -15 6 -14 6 -60 0
-60 -4 0 -117 64 -251 141 -134 78 -266 154 -294 170 -49 27 -486 280 -514
297 -12 7 -15 82 -15 483 l-1 474 -26 45 c-15 25 -36 61 -46 80 -30 54 -313
559 -341 610 -14 25 -34 61 -45 80 -10 19 -22 38 -26 43 -4 4 -7 -478 -7
-1070 0 -746 3 -1081 10 -1088 6 -5 25 -17 41 -25 70 -35 134 -77 127 -84 -4
-5 2 -6 13 -4 11 1 19 -1 18 -7 -1 -5 10 -11 24 -12 15 0 30 -8 34 -16 5 -8
20 -18 35 -21 17 -5 24 -12 20 -21 -3 -8 0 -17 6 -21 7 -4 8 -3 4 4 -5 8 1 12
14 12 12 0 18 -4 15 -10 -3 -5 3 -10 14 -10 12 0 21 -5 21 -11 0 -5 4 -8 9 -4
6 3 14 -3 20 -12 6 -10 11 -15 11 -10 0 11 60 -22 60 -34 0 -6 4 -7 10 -4 6 3
10 -1 10 -9 0 -8 4 -18 10 -21 6 -3 7 1 4 9 -5 12 4 10 35 -7 23 -12 39 -27
36 -34 -2 -7 1 -15 7 -19 7 -4 8 -3 4 4 -11 18 18 14 45 -6 13 -10 45 -29 72
-42 26 -14 47 -29 47 -33 0 -5 5 -5 10 -2 5 3 10 1 10 -4 0 -6 5 -11 10 -11
18 0 101 -56 93 -64 -4 -4 0 -4 9 -1 8 3 22 0 29 -7 8 -7 21 -14 29 -16 8 -2
21 -11 28 -20 7 -9 15 -16 17 -14 12 6 25 1 41 -15 10 -10 20 -18 24 -18 17 0
229 -128 225 -136 -4 -5 1 -6 9 -3 17 6 21 -5 9 -22 -5 -5 -2 -4 6 2 10 9 22
7 50 -9 20 -12 38 -25 39 -29 2 -5 8 -6 13 -2 5 3 9 1 9 -4 0 -5 10 -12 22
-15 19 -5 20 -8 7 -24 -13 -16 -12 -17 2 -5 17 13 49 7 49 -9 0 -5 3 -8 8 -7
9 3 72 -30 72 -38 0 -3 -5 -2 -12 2 -7 4 -8 3 -4 -5 4 -6 11 -9 16 -6 11 7 41
-5 36 -14 -3 -4 5 -8 17 -8 11 -1 33 -11 48 -23 16 -11 33 -20 39 -20 5 0 10
-4 10 -10 0 -5 7 -10 15 -10 8 0 15 -4 15 -10 0 -5 3 -9 8 -8 12 2 56 -19 77
-39 12 -10 27 -19 35 -21 7 -2 20 -11 28 -20 9 -12 12 -13 7 -2 -4 8 1 6 9 -4
9 -11 16 -16 16 -12 0 4 16 -2 35 -14 l35 -22 0 1184 0 1184 -42 25 c-23 13
-58 34 -77 46 -20 13 -43 26 -51 30 -8 4 -91 53 -185 108 -93 56 -264 157
-380 225 -115 67 -221 130 -235 139 -14 8 -34 21 -45 26 -47 26 -220 129 -225
134 -3 3 -19 13 -35 22 -17 9 -82 47 -145 84 -63 37 -131 77 -150 88 -19 10
-47 28 -62 38 -14 11 -28 19 -31 19 -3 0 -35 18 -71 40 -36 22 -70 40 -76 40
-5 0 -10 5 -10 10 0 6 -6 10 -14 10 -8 0 -17 6 -19 13 -4 8 -6 9 -6 0z"/>
<path d="M725 3680 c3 -5 8 -10 11 -10 2 0 4 5 4 10 0 6 -5 10 -11 10 -5 0 -7
-4 -4 -10z"/>
<path d="M2376 3622 c-3 -5 1 -9 9 -9 8 0 12 4 9 9 -3 4 -7 8 -9 8 -2 0 -6 -4
-9 -8z"/>
<path d="M2599 3593 c-13 -16 -12 -17 4 -4 16 13 21 21 13 21 -2 0 -10 -8 -17
-17z"/>
<path d="M1575 3560 c-3 -5 -1 -10 4 -10 6 0 11 5 11 10 0 6 -2 10 -4 10 -3 0
-8 -4 -11 -10z"/>
<path d="M1510 3519 c0 -5 5 -7 10 -4 6 3 10 8 10 11 0 2 -4 4 -10 4 -5 0 -10
-5 -10 -11z"/>
<path d="M1844 3417 c-78 -50 -148 -96 -156 -102 -8 -5 -45 -29 -81 -53 -58
-38 -65 -46 -53 -58 8 -8 19 -14 23 -14 5 0 19 -9 31 -20 12 -12 22 -18 22
-15 0 8 73 -36 82 -49 4 -6 8 -7 8 -2 0 5 7 3 15 -4 8 -7 12 -16 9 -21 -3 -5
1 -6 9 -3 16 6 81 -29 71 -38 -3 -3 3 -5 13 -4 10 0 17 -5 15 -12 -1 -8 3 -12
10 -9 16 5 68 -20 68 -34 0 -6 4 -8 9 -4 5 3 17 -2 25 -11 9 -8 16 -13 16 -10
0 5 62 -33 86 -53 6 -5 20 -11 30 -13 11 -2 18 -11 16 -20 -1 -9 2 -19 8 -23
6 -3 7 0 4 9 -8 22 0 20 52 -10 24 -14 42 -30 38 -35 -3 -5 1 -6 9 -3 8 3 18
0 22 -5 3 -6 11 -9 16 -6 5 4 9 -1 9 -10 0 -9 4 -14 9 -10 13 7 43 -24 35 -37
-4 -7 -2 -8 5 -4 6 4 9 12 6 17 -3 5 1 6 9 3 9 -3 16 -10 16 -14 0 -4 9 -10
20 -13 14 -4 18 -11 14 -24 -5 -14 -4 -15 4 -4 11 15 42 8 42 -9 0 -6 -5 -8
-12 -4 -7 4 -8 3 -4 -5 6 -9 11 -9 22 0 11 9 14 9 14 0 0 -7 4 -10 9 -7 4 3
19 -3 31 -14 18 -15 26 -17 37 -9 7 6 13 8 13 5 0 -4 10 2 22 14 12 11 27 20
34 20 6 0 17 7 24 15 7 8 16 12 21 9 5 -3 9 -2 9 3 0 12 51 33 63 26 6 -3 7
-1 4 4 -4 6 9 21 29 32 30 18 39 19 53 9 14 -11 14 -11 4 3 -11 13 -8 18 15
30 15 7 51 29 80 47 37 23 60 31 75 27 15 -4 18 -3 8 3 -16 12 3 27 21 16 6
-4 8 -3 5 3 -6 9 29 32 45 29 4 0 14 8 22 19 8 11 18 17 22 13 4 -4 15 2 25
13 11 13 25 19 34 15 9 -3 14 -2 11 3 -3 5 6 17 21 26 22 15 30 16 47 5 19
-12 20 -11 8 3 -10 11 -10 17 -1 22 6 4 16 1 21 -6 8 -11 9 -10 5 3 -7 19 29
46 56 42 9 -1 15 2 12 6 -3 5 21 23 52 40 32 17 69 39 82 49 l25 19 -222 146
c-123 80 -227 146 -232 146 -5 0 -33 -15 -62 -34 -29 -18 -145 -89 -258 -158
l-205 -124 -255 157 c-140 87 -259 158 -265 158 -5 1 -74 -41 -151 -92z"/>
<path d="M3636 3438 c3 -5 10 -6 15 -3 13 9 11 12 -6 12 -8 0 -12 -4 -9 -9z"/>
<path d="M4310 2916 c7 -7 13 -7 20 0 6 6 3 10 -10 10 -13 0 -16 -4 -10 -10z"/>
<path d="M2835 2800 c3 -5 8 -10 11 -10 2 0 4 5 4 10 0 6 -5 10 -11 10 -5 0
-7 -4 -4 -10z"/>
<path d="M1236 2678 c3 -5 10 -6 15 -3 13 9 11 12 -6 12 -8 0 -12 -4 -9 -9z"/>
<path d="M3826 2642 c-3 -5 1 -9 9 -9 8 0 12 4 9 9 -3 4 -7 8 -9 8 -2 0 -6 -4
-9 -8z"/>
<path d="M1726 2398 c3 -5 10 -6 15 -3 13 9 11 12 -6 12 -8 0 -12 -4 -9 -9z"/>
<path d="M3065 2200 c-3 -6 1 -7 9 -4 18 7 21 14 7 14 -6 0 -13 -4 -16 -10z"/>
<path d="M4455 1943 c-71 -41 -150 -86 -175 -100 -138 -77 -223 -128 -226
-137 -2 -6 -3 -154 -2 -328 l3 -318 44 30 c36 23 48 27 60 17 8 -7 12 -7 9 -2
-9 15 1 28 44 54 21 12 43 19 49 15 7 -4 9 -3 6 3 -5 9 112 93 128 93 2 0 24
14 48 30 25 17 49 30 55 30 6 0 12 3 14 8 2 4 19 17 38 29 l35 22 0 316 c0
173 0 315 0 314 0 0 -58 -34 -130 -76z"/>
<path d="M1317 1729 c7 -7 15 -10 18 -7 3 3 -2 9 -12 12 -14 6 -15 5 -6 -5z"/>
<path d="M4536 1333 c-6 -14 -5 -15 5 -6 7 7 10 15 7 18 -3 3 -9 -2 -12 -12z"/>
<path d="M3075 1151 c-6 -5 -120 -72 -255 -150 l-245 -140 0 -323 c-1 -300 0
-324 16 -324 10 0 15 5 12 10 -4 5 1 7 11 3 9 -4 15 -3 12 2 -6 10 41 44 61
44 7 0 13 3 13 7 0 14 170 111 181 104 8 -4 9 -3 5 4 -6 11 31 38 47 34 4 -1
7 3 7 10 0 6 3 8 7 5 3 -4 11 0 17 9 6 8 21 16 33 17 12 0 20 4 17 8 -2 4 8
15 22 24 18 11 24 12 18 4 -4 -8 6 -1 24 16 l32 30 0 307 c0 246 -3 308 -13
308 -7 0 -17 -4 -22 -9z"/>
<path d="M1696 633 c-6 -14 -5 -15 5 -6 7 7 10 15 7 18 -3 3 -9 -2 -12 -12z"/>
<path d="M2433 205 c0 -8 4 -12 9 -9 5 3 6 10 3 15 -9 13 -12 11 -12 -6z"/>
</g>
</svg>
